<mxfile host="app.diagrams.net" agent="Mozilla/5.0 (Windows NT 10.0; Win64; x64) AppleWebKit/537.36 (KHTML, like Gecko) Chrome/138.0.0.0 Safari/537.36" version="28.0.6" pages="8">
  <diagram name="git-tree-example" id="1dVav0qIWEPeHqKjiDFk">
    <mxGraphModel dx="674" dy="399" grid="1" gridSize="10" guides="1" tooltips="1" connect="1" arrows="1" fold="1" page="1" pageScale="1" pageWidth="1169" pageHeight="827" background="none" math="0" shadow="0">
      <root>
        <mxCell id="0" />
        <mxCell id="1" parent="0" />
        <mxCell id="3dryHKgh4KYxYCQUs076-1" value="" style="edgeStyle=orthogonalEdgeStyle;rounded=0;orthogonalLoop=1;jettySize=auto;html=1;fontFamily=Source Han Sans;fontSize=12;fontColor=default;startArrow=block;startFill=1;endArrow=none;endFill=0;strokeColor=light-dark(#777777,#777777);align=center;verticalAlign=middle;labelBackgroundColor=default;fillColor=none;" edge="1" parent="1" source="3dryHKgh4KYxYCQUs076-2" target="3dryHKgh4KYxYCQUs076-5">
          <mxGeometry relative="1" as="geometry" />
        </mxCell>
        <mxCell id="3dryHKgh4KYxYCQUs076-2" value="&lt;font&gt;A&lt;/font&gt;" style="ellipse;whiteSpace=wrap;html=1;fillColor=#dae8fc;strokeColor=#6c8ebf;gradientColor=none;fontFamily=Source Han Sans;horizontal=1;spacing=2;fontSize=18;" vertex="1" parent="1">
          <mxGeometry x="520" y="430" width="40" height="40" as="geometry" />
        </mxCell>
        <mxCell id="3dryHKgh4KYxYCQUs076-3" style="edgeStyle=orthogonalEdgeStyle;rounded=0;orthogonalLoop=1;jettySize=auto;html=1;exitX=0.5;exitY=0;exitDx=0;exitDy=0;entryX=0.5;entryY=1;entryDx=0;entryDy=0;fontFamily=Source Han Sans;fontSize=12;fontColor=default;strokeColor=light-dark(#777777,#777777);align=center;verticalAlign=middle;labelBackgroundColor=default;startArrow=block;startFill=1;endArrow=none;endFill=0;fillColor=none;" edge="1" parent="1" source="3dryHKgh4KYxYCQUs076-7" target="3dryHKgh4KYxYCQUs076-4">
          <mxGeometry relative="1" as="geometry" />
        </mxCell>
        <mxCell id="3dryHKgh4KYxYCQUs076-4" value="main" style="whiteSpace=wrap;html=1;fontFamily=Source Han Sans;fillColor=#dae8fc;strokeColor=#6c8ebf;gradientColor=none;spacing=2;fontSize=18;" vertex="1" parent="1">
          <mxGeometry x="860" y="360" width="80" height="40" as="geometry" />
        </mxCell>
        <mxCell id="3dryHKgh4KYxYCQUs076-5" value="B" style="ellipse;whiteSpace=wrap;html=1;fillColor=#dae8fc;strokeColor=#6c8ebf;gradientColor=none;fontFamily=Source Han Sans;horizontal=1;spacing=2;fontSize=18;" vertex="1" parent="1">
          <mxGeometry x="640" y="430" width="40" height="40" as="geometry" />
        </mxCell>
        <mxCell id="3dryHKgh4KYxYCQUs076-6" value="C" style="ellipse;whiteSpace=wrap;html=1;fillColor=#dae8fc;strokeColor=#6c8ebf;gradientColor=none;fontFamily=Source Han Sans;horizontal=1;spacing=2;fontSize=18;" vertex="1" parent="1">
          <mxGeometry x="760" y="430" width="40" height="40" as="geometry" />
        </mxCell>
        <mxCell id="3dryHKgh4KYxYCQUs076-7" value="D" style="ellipse;whiteSpace=wrap;html=1;fillColor=#dae8fc;strokeColor=#6c8ebf;gradientColor=none;fontFamily=Source Han Sans;horizontal=1;spacing=2;fontSize=18;" vertex="1" parent="1">
          <mxGeometry x="880" y="430" width="40" height="40" as="geometry" />
        </mxCell>
        <mxCell id="3dryHKgh4KYxYCQUs076-8" value="" style="edgeStyle=orthogonalEdgeStyle;rounded=0;orthogonalLoop=1;jettySize=auto;html=1;fontFamily=Source Han Sans;fontSize=12;fontColor=default;startArrow=block;startFill=1;endArrow=none;endFill=0;strokeColor=light-dark(#777777,#777777);align=center;verticalAlign=middle;labelBackgroundColor=default;fillColor=none;" edge="1" parent="1">
          <mxGeometry relative="1" as="geometry">
            <mxPoint x="680" y="449.6600000000001" as="sourcePoint" />
            <mxPoint x="760" y="449.6600000000001" as="targetPoint" />
          </mxGeometry>
        </mxCell>
        <mxCell id="3dryHKgh4KYxYCQUs076-9" value="" style="edgeStyle=orthogonalEdgeStyle;rounded=0;orthogonalLoop=1;jettySize=auto;html=1;fontFamily=Source Han Sans;fontSize=12;fontColor=default;startArrow=block;startFill=1;endArrow=none;endFill=0;strokeColor=light-dark(#777777,#777777);align=center;verticalAlign=middle;labelBackgroundColor=default;fillColor=none;" edge="1" parent="1">
          <mxGeometry relative="1" as="geometry">
            <mxPoint x="800" y="449.6600000000001" as="sourcePoint" />
            <mxPoint x="880" y="449.6600000000001" as="targetPoint" />
            <Array as="points">
              <mxPoint x="860" y="449.6600000000001" />
              <mxPoint x="860" y="449.6600000000001" />
            </Array>
          </mxGeometry>
        </mxCell>
        <mxCell id="3dryHKgh4KYxYCQUs076-10" style="edgeStyle=orthogonalEdgeStyle;rounded=0;orthogonalLoop=1;jettySize=auto;html=1;fontFamily=Source Han Sans;fontSize=12;fontColor=default;strokeColor=light-dark(#777777,#777777);align=center;verticalAlign=middle;labelBackgroundColor=default;startArrow=block;startFill=1;endArrow=none;endFill=0;fillColor=none;exitX=0.5;exitY=0;exitDx=0;exitDy=0;" edge="1" parent="1" source="3dryHKgh4KYxYCQUs076-4" target="3dryHKgh4KYxYCQUs076-11">
          <mxGeometry relative="1" as="geometry" />
        </mxCell>
        <mxCell id="3dryHKgh4KYxYCQUs076-11" value="HEAD" style="rounded=0;whiteSpace=wrap;html=1;align=center;verticalAlign=middle;spacing=2;fontFamily=Source Han Sans;fontSize=18;fillColor=#f8cecc;strokeColor=#b85450;" vertex="1" parent="1">
          <mxGeometry x="860" y="280" width="80" height="40" as="geometry" />
        </mxCell>
      </root>
    </mxGraphModel>
  </diagram>
  <diagram name="git-tree-new-branch" id="qNCQV1yE8bbX4KfwaqgK">
    <mxGraphModel dx="809" dy="479" grid="1" gridSize="10" guides="1" tooltips="1" connect="1" arrows="1" fold="1" page="1" pageScale="1" pageWidth="1169" pageHeight="827" background="none" math="0" shadow="0">
      <root>
        <mxCell id="ZKJb3Ks1QrBoUfyLxAb3-0" />
        <mxCell id="ZKJb3Ks1QrBoUfyLxAb3-1" parent="ZKJb3Ks1QrBoUfyLxAb3-0" />
        <mxCell id="l7o-U9BmdxdqW-MtB8Id-2" value="" style="edgeStyle=orthogonalEdgeStyle;rounded=0;orthogonalLoop=1;jettySize=auto;html=1;fontFamily=Source Han Sans;fontSize=12;fontColor=default;startArrow=block;startFill=1;endArrow=none;endFill=0;fillColor=none;strokeColor=light-dark(#777777,#777777);" edge="1" parent="ZKJb3Ks1QrBoUfyLxAb3-1" source="l7o-U9BmdxdqW-MtB8Id-3" target="l7o-U9BmdxdqW-MtB8Id-6">
          <mxGeometry relative="1" as="geometry" />
        </mxCell>
        <mxCell id="l7o-U9BmdxdqW-MtB8Id-3" value="&lt;font&gt;A&lt;/font&gt;" style="ellipse;whiteSpace=wrap;html=1;fillColor=#dae8fc;strokeColor=#6c8ebf;gradientColor=none;fontFamily=Source Han Sans;horizontal=1;spacing=2;fontSize=18;" vertex="1" parent="ZKJb3Ks1QrBoUfyLxAb3-1">
          <mxGeometry x="390" y="434" width="40" height="40" as="geometry" />
        </mxCell>
        <mxCell id="l7o-U9BmdxdqW-MtB8Id-4" style="edgeStyle=orthogonalEdgeStyle;rounded=0;orthogonalLoop=1;jettySize=auto;html=1;exitX=0.5;exitY=0;exitDx=0;exitDy=0;entryX=0.5;entryY=1;entryDx=0;entryDy=0;fontFamily=Source Han Sans;fontSize=12;fontColor=default;strokeColor=light-dark(#777777,#777777);align=center;verticalAlign=middle;labelBackgroundColor=default;startArrow=block;startFill=1;endArrow=none;endFill=0;fillColor=none;" edge="1" parent="ZKJb3Ks1QrBoUfyLxAb3-1" source="l7o-U9BmdxdqW-MtB8Id-8" target="l7o-U9BmdxdqW-MtB8Id-5">
          <mxGeometry relative="1" as="geometry" />
        </mxCell>
        <mxCell id="l7o-U9BmdxdqW-MtB8Id-5" value="main" style="whiteSpace=wrap;html=1;fontFamily=Source Han Sans;fillColor=#dae8fc;strokeColor=#6c8ebf;gradientColor=none;spacing=2;fontSize=18;" vertex="1" parent="ZKJb3Ks1QrBoUfyLxAb3-1">
          <mxGeometry x="730" y="364" width="80" height="40" as="geometry" />
        </mxCell>
        <mxCell id="l7o-U9BmdxdqW-MtB8Id-6" value="B" style="ellipse;whiteSpace=wrap;html=1;fillColor=#dae8fc;strokeColor=#6c8ebf;gradientColor=none;fontFamily=Source Han Sans;horizontal=1;spacing=2;fontSize=18;" vertex="1" parent="ZKJb3Ks1QrBoUfyLxAb3-1">
          <mxGeometry x="510" y="434" width="40" height="40" as="geometry" />
        </mxCell>
        <mxCell id="l7o-U9BmdxdqW-MtB8Id-7" value="C" style="ellipse;whiteSpace=wrap;html=1;fillColor=#dae8fc;strokeColor=#6c8ebf;gradientColor=none;fontFamily=Source Han Sans;horizontal=1;spacing=2;fontSize=18;" vertex="1" parent="ZKJb3Ks1QrBoUfyLxAb3-1">
          <mxGeometry x="630" y="434" width="40" height="40" as="geometry" />
        </mxCell>
        <mxCell id="l7o-U9BmdxdqW-MtB8Id-8" value="D" style="ellipse;whiteSpace=wrap;html=1;fillColor=#dae8fc;strokeColor=#6c8ebf;gradientColor=none;fontFamily=Source Han Sans;horizontal=1;spacing=2;fontSize=18;" vertex="1" parent="ZKJb3Ks1QrBoUfyLxAb3-1">
          <mxGeometry x="750" y="434" width="40" height="40" as="geometry" />
        </mxCell>
        <mxCell id="l7o-U9BmdxdqW-MtB8Id-9" value="" style="edgeStyle=orthogonalEdgeStyle;rounded=0;orthogonalLoop=1;jettySize=auto;html=1;fontFamily=Source Han Sans;fontSize=12;fontColor=default;startArrow=block;startFill=1;endArrow=none;endFill=0;strokeColor=light-dark(#777777,#777777);align=center;verticalAlign=middle;labelBackgroundColor=default;fillColor=none;" edge="1" parent="ZKJb3Ks1QrBoUfyLxAb3-1">
          <mxGeometry relative="1" as="geometry">
            <mxPoint x="550" y="453.66" as="sourcePoint" />
            <mxPoint x="630" y="453.66" as="targetPoint" />
          </mxGeometry>
        </mxCell>
        <mxCell id="l7o-U9BmdxdqW-MtB8Id-10" value="" style="edgeStyle=orthogonalEdgeStyle;rounded=0;orthogonalLoop=1;jettySize=auto;html=1;fontFamily=Source Han Sans;fontSize=12;fontColor=default;startArrow=block;startFill=1;endArrow=none;endFill=0;strokeColor=light-dark(#777777,#777777);align=center;verticalAlign=middle;labelBackgroundColor=default;fillColor=none;" edge="1" parent="ZKJb3Ks1QrBoUfyLxAb3-1">
          <mxGeometry relative="1" as="geometry">
            <mxPoint x="670" y="453.66" as="sourcePoint" />
            <mxPoint x="750" y="453.66" as="targetPoint" />
            <Array as="points">
              <mxPoint x="730" y="453.66" />
              <mxPoint x="730" y="453.66" />
            </Array>
          </mxGeometry>
        </mxCell>
        <mxCell id="l7o-U9BmdxdqW-MtB8Id-11" style="edgeStyle=orthogonalEdgeStyle;rounded=0;orthogonalLoop=1;jettySize=auto;html=1;fontFamily=Source Han Sans;fontSize=12;fontColor=default;strokeColor=light-dark(#777777,#777777);align=center;verticalAlign=middle;labelBackgroundColor=default;startArrow=block;startFill=1;endArrow=none;endFill=0;fillColor=none;entryX=0.5;entryY=1;entryDx=0;entryDy=0;exitX=0.5;exitY=0;exitDx=0;exitDy=0;" edge="1" parent="ZKJb3Ks1QrBoUfyLxAb3-1" source="l7o-U9BmdxdqW-MtB8Id-5" target="l7o-U9BmdxdqW-MtB8Id-12">
          <mxGeometry relative="1" as="geometry">
            <mxPoint x="790" y="350" as="sourcePoint" />
            <mxPoint x="760" y="340" as="targetPoint" />
            <Array as="points" />
          </mxGeometry>
        </mxCell>
        <mxCell id="l7o-U9BmdxdqW-MtB8Id-12" value="HEAD" style="rounded=0;whiteSpace=wrap;html=1;align=center;verticalAlign=middle;spacing=2;fontFamily=Source Han Sans;fontSize=18;fillColor=#f8cecc;strokeColor=#b85450;" vertex="1" parent="ZKJb3Ks1QrBoUfyLxAb3-1">
          <mxGeometry x="730" y="284" width="80" height="40" as="geometry" />
        </mxCell>
        <mxCell id="6zn16mgQZb2hE2SnyJ0N-0" style="edgeStyle=orthogonalEdgeStyle;rounded=0;orthogonalLoop=1;jettySize=auto;html=1;fontFamily=Source Han Sans;fontSize=12;fontColor=default;strokeColor=light-dark(#777777,#777777);align=center;verticalAlign=middle;labelBackgroundColor=default;startArrow=block;startFill=1;endArrow=none;endFill=0;fillColor=none;exitX=0.5;exitY=1;exitDx=0;exitDy=0;" edge="1" parent="ZKJb3Ks1QrBoUfyLxAb3-1" source="l7o-U9BmdxdqW-MtB8Id-8" target="6zn16mgQZb2hE2SnyJ0N-1">
          <mxGeometry relative="1" as="geometry">
            <mxPoint x="770" y="474" as="sourcePoint" />
          </mxGeometry>
        </mxCell>
        <mxCell id="6zn16mgQZb2hE2SnyJ0N-1" value="dev" style="whiteSpace=wrap;html=1;fontFamily=Source Han Sans;fillColor=#dae8fc;strokeColor=#6c8ebf;gradientColor=none;spacing=2;fontSize=18;rounded=0;" vertex="1" parent="ZKJb3Ks1QrBoUfyLxAb3-1">
          <mxGeometry x="730" y="504" width="80" height="40" as="geometry" />
        </mxCell>
      </root>
    </mxGraphModel>
  </diagram>
  <diagram name="git-tree-new-branch-2" id="qNefksQB4roNk4mQb5hZ">
    <mxGraphModel dx="1011" dy="598" grid="1" gridSize="10" guides="1" tooltips="1" connect="1" arrows="1" fold="1" page="1" pageScale="1" pageWidth="1169" pageHeight="827" background="none" math="0" shadow="0">
      <root>
        <mxCell id="zkgcwBCNn9rdixiOf7sj-0" />
        <mxCell id="zkgcwBCNn9rdixiOf7sj-1" parent="zkgcwBCNn9rdixiOf7sj-0" />
        <mxCell id="zkgcwBCNn9rdixiOf7sj-2" value="" style="edgeStyle=orthogonalEdgeStyle;rounded=0;orthogonalLoop=1;jettySize=auto;html=1;fontFamily=Source Han Sans;fontSize=12;fontColor=default;startArrow=block;startFill=1;endArrow=none;endFill=0;fillColor=none;strokeColor=light-dark(#777777,#777777);" edge="1" parent="zkgcwBCNn9rdixiOf7sj-1" source="zkgcwBCNn9rdixiOf7sj-3" target="zkgcwBCNn9rdixiOf7sj-6">
          <mxGeometry relative="1" as="geometry" />
        </mxCell>
        <mxCell id="zkgcwBCNn9rdixiOf7sj-3" value="&lt;font&gt;A&lt;/font&gt;" style="ellipse;whiteSpace=wrap;html=1;fillColor=#dae8fc;strokeColor=#6c8ebf;gradientColor=none;fontFamily=Source Han Sans;horizontal=1;spacing=2;fontSize=18;" vertex="1" parent="zkgcwBCNn9rdixiOf7sj-1">
          <mxGeometry x="400" y="433" width="40" height="40" as="geometry" />
        </mxCell>
        <mxCell id="zkgcwBCNn9rdixiOf7sj-4" style="edgeStyle=orthogonalEdgeStyle;rounded=0;orthogonalLoop=1;jettySize=auto;html=1;exitX=0.5;exitY=0;exitDx=0;exitDy=0;entryX=0.5;entryY=1;entryDx=0;entryDy=0;fontFamily=Source Han Sans;fontSize=12;fontColor=default;strokeColor=light-dark(#777777,#777777);align=center;verticalAlign=middle;labelBackgroundColor=default;startArrow=block;startFill=1;endArrow=none;endFill=0;fillColor=none;" edge="1" parent="zkgcwBCNn9rdixiOf7sj-1" target="zkgcwBCNn9rdixiOf7sj-5">
          <mxGeometry relative="1" as="geometry">
            <mxPoint x="900" y="433" as="sourcePoint" />
          </mxGeometry>
        </mxCell>
        <mxCell id="zkgcwBCNn9rdixiOf7sj-5" value="main" style="whiteSpace=wrap;html=1;fontFamily=Source Han Sans;fillColor=#dae8fc;strokeColor=#6c8ebf;gradientColor=none;spacing=2;fontSize=18;" vertex="1" parent="zkgcwBCNn9rdixiOf7sj-1">
          <mxGeometry x="860" y="363" width="80" height="40" as="geometry" />
        </mxCell>
        <mxCell id="zkgcwBCNn9rdixiOf7sj-6" value="B" style="ellipse;whiteSpace=wrap;html=1;fillColor=#dae8fc;strokeColor=#6c8ebf;gradientColor=none;fontFamily=Source Han Sans;horizontal=1;spacing=2;fontSize=18;" vertex="1" parent="zkgcwBCNn9rdixiOf7sj-1">
          <mxGeometry x="520" y="433" width="40" height="40" as="geometry" />
        </mxCell>
        <mxCell id="zkgcwBCNn9rdixiOf7sj-7" value="C" style="ellipse;whiteSpace=wrap;html=1;fillColor=#dae8fc;strokeColor=#6c8ebf;gradientColor=none;fontFamily=Source Han Sans;horizontal=1;spacing=2;fontSize=18;" vertex="1" parent="zkgcwBCNn9rdixiOf7sj-1">
          <mxGeometry x="640" y="433" width="40" height="40" as="geometry" />
        </mxCell>
        <mxCell id="zkgcwBCNn9rdixiOf7sj-8" value="D" style="ellipse;whiteSpace=wrap;html=1;fillColor=#dae8fc;strokeColor=#6c8ebf;gradientColor=none;fontFamily=Source Han Sans;horizontal=1;spacing=2;fontSize=18;" vertex="1" parent="zkgcwBCNn9rdixiOf7sj-1">
          <mxGeometry x="760" y="433" width="40" height="40" as="geometry" />
        </mxCell>
        <mxCell id="zkgcwBCNn9rdixiOf7sj-9" value="" style="edgeStyle=orthogonalEdgeStyle;rounded=0;orthogonalLoop=1;jettySize=auto;html=1;fontFamily=Source Han Sans;fontSize=12;fontColor=default;startArrow=block;startFill=1;endArrow=none;endFill=0;strokeColor=light-dark(#777777,#777777);align=center;verticalAlign=middle;labelBackgroundColor=default;fillColor=none;" edge="1" parent="zkgcwBCNn9rdixiOf7sj-1">
          <mxGeometry relative="1" as="geometry">
            <mxPoint x="560" y="452.66" as="sourcePoint" />
            <mxPoint x="640" y="452.66" as="targetPoint" />
          </mxGeometry>
        </mxCell>
        <mxCell id="zkgcwBCNn9rdixiOf7sj-10" value="" style="edgeStyle=orthogonalEdgeStyle;rounded=0;orthogonalLoop=1;jettySize=auto;html=1;fontFamily=Source Han Sans;fontSize=12;fontColor=default;startArrow=block;startFill=1;endArrow=none;endFill=0;strokeColor=light-dark(#777777,#777777);align=center;verticalAlign=middle;labelBackgroundColor=default;fillColor=none;" edge="1" parent="zkgcwBCNn9rdixiOf7sj-1">
          <mxGeometry relative="1" as="geometry">
            <mxPoint x="680" y="452.66" as="sourcePoint" />
            <mxPoint x="760" y="452.66" as="targetPoint" />
            <Array as="points">
              <mxPoint x="740" y="452.66" />
              <mxPoint x="740" y="452.66" />
            </Array>
          </mxGeometry>
        </mxCell>
        <mxCell id="zkgcwBCNn9rdixiOf7sj-11" style="edgeStyle=orthogonalEdgeStyle;rounded=0;orthogonalLoop=1;jettySize=auto;html=1;fontFamily=Source Han Sans;fontSize=12;fontColor=default;strokeColor=light-dark(#777777,#777777);align=center;verticalAlign=middle;labelBackgroundColor=default;startArrow=block;startFill=1;endArrow=none;endFill=0;fillColor=none;entryX=0.5;entryY=1;entryDx=0;entryDy=0;exitX=0.5;exitY=0;exitDx=0;exitDy=0;" edge="1" parent="zkgcwBCNn9rdixiOf7sj-1" source="zkgcwBCNn9rdixiOf7sj-5" target="zkgcwBCNn9rdixiOf7sj-12">
          <mxGeometry relative="1" as="geometry">
            <mxPoint x="920" y="349" as="sourcePoint" />
            <mxPoint x="890" y="339" as="targetPoint" />
            <Array as="points" />
          </mxGeometry>
        </mxCell>
        <mxCell id="zkgcwBCNn9rdixiOf7sj-12" value="HEAD" style="rounded=0;whiteSpace=wrap;html=1;align=center;verticalAlign=middle;spacing=2;fontFamily=Source Han Sans;fontSize=18;fillColor=#f8cecc;strokeColor=#b85450;" vertex="1" parent="zkgcwBCNn9rdixiOf7sj-1">
          <mxGeometry x="860" y="283" width="80" height="40" as="geometry" />
        </mxCell>
        <mxCell id="zkgcwBCNn9rdixiOf7sj-13" style="edgeStyle=orthogonalEdgeStyle;rounded=0;orthogonalLoop=1;jettySize=auto;html=1;fontFamily=Source Han Sans;fontSize=12;fontColor=default;strokeColor=light-dark(#777777,#777777);align=center;verticalAlign=middle;labelBackgroundColor=default;startArrow=block;startFill=1;endArrow=none;endFill=0;fillColor=none;exitX=0.5;exitY=1;exitDx=0;exitDy=0;" edge="1" parent="zkgcwBCNn9rdixiOf7sj-1" source="zkgcwBCNn9rdixiOf7sj-8" target="zkgcwBCNn9rdixiOf7sj-14">
          <mxGeometry relative="1" as="geometry">
            <mxPoint x="780" y="473" as="sourcePoint" />
          </mxGeometry>
        </mxCell>
        <mxCell id="zkgcwBCNn9rdixiOf7sj-14" value="dev" style="whiteSpace=wrap;html=1;fontFamily=Source Han Sans;fillColor=#dae8fc;strokeColor=#6c8ebf;gradientColor=none;spacing=2;fontSize=18;rounded=0;" vertex="1" parent="zkgcwBCNn9rdixiOf7sj-1">
          <mxGeometry x="740" y="503" width="80" height="40" as="geometry" />
        </mxCell>
        <mxCell id="Ad1Tr0mT8lpnOp4WajDR-1" style="edgeStyle=orthogonalEdgeStyle;rounded=0;orthogonalLoop=1;jettySize=auto;html=1;strokeColor=light-dark(#777777,#777777);align=center;verticalAlign=middle;fontFamily=Source Han Sans;fontSize=12;fontColor=default;labelBackgroundColor=default;startArrow=block;startFill=1;endArrow=none;endFill=0;fillColor=none;exitX=1;exitY=0.5;exitDx=0;exitDy=0;" edge="1" parent="zkgcwBCNn9rdixiOf7sj-1" source="zkgcwBCNn9rdixiOf7sj-8" target="Ad1Tr0mT8lpnOp4WajDR-0">
          <mxGeometry relative="1" as="geometry" />
        </mxCell>
        <mxCell id="Ad1Tr0mT8lpnOp4WajDR-0" value="E" style="ellipse;whiteSpace=wrap;html=1;fillColor=#dae8fc;strokeColor=#6c8ebf;gradientColor=none;fontFamily=Source Han Sans;horizontal=1;spacing=2;fontSize=18;" vertex="1" parent="zkgcwBCNn9rdixiOf7sj-1">
          <mxGeometry x="880" y="433" width="40" height="40" as="geometry" />
        </mxCell>
      </root>
    </mxGraphModel>
  </diagram>
  <diagram name="git-tree-new-branch-3" id="x0ArepJdtddSQU9si8uE">
    <mxGraphModel dx="1011" dy="598" grid="1" gridSize="10" guides="1" tooltips="1" connect="1" arrows="1" fold="1" page="1" pageScale="1" pageWidth="1169" pageHeight="827" background="none" math="0" shadow="0">
      <root>
        <mxCell id="MAazCIpk6YVfrktGDvx6-0" />
        <mxCell id="MAazCIpk6YVfrktGDvx6-1" parent="MAazCIpk6YVfrktGDvx6-0" />
        <mxCell id="MAazCIpk6YVfrktGDvx6-2" value="" style="edgeStyle=orthogonalEdgeStyle;rounded=0;orthogonalLoop=1;jettySize=auto;html=1;fontFamily=Source Han Sans;fontSize=12;fontColor=default;startArrow=block;startFill=1;endArrow=none;endFill=0;fillColor=none;strokeColor=light-dark(#777777,#777777);" edge="1" parent="MAazCIpk6YVfrktGDvx6-1" source="MAazCIpk6YVfrktGDvx6-3" target="MAazCIpk6YVfrktGDvx6-6">
          <mxGeometry relative="1" as="geometry" />
        </mxCell>
        <mxCell id="MAazCIpk6YVfrktGDvx6-3" value="&lt;font&gt;A&lt;/font&gt;" style="ellipse;whiteSpace=wrap;html=1;fillColor=#dae8fc;strokeColor=#6c8ebf;gradientColor=none;fontFamily=Source Han Sans;horizontal=1;spacing=2;fontSize=18;" vertex="1" parent="MAazCIpk6YVfrktGDvx6-1">
          <mxGeometry x="400" y="433" width="40" height="40" as="geometry" />
        </mxCell>
        <mxCell id="MAazCIpk6YVfrktGDvx6-4" style="edgeStyle=orthogonalEdgeStyle;rounded=0;orthogonalLoop=1;jettySize=auto;html=1;exitX=0.5;exitY=0;exitDx=0;exitDy=0;entryX=0.5;entryY=1;entryDx=0;entryDy=0;fontFamily=Source Han Sans;fontSize=12;fontColor=default;strokeColor=light-dark(#777777,#777777);align=center;verticalAlign=middle;labelBackgroundColor=default;startArrow=block;startFill=1;endArrow=none;endFill=0;fillColor=none;" edge="1" parent="MAazCIpk6YVfrktGDvx6-1" target="MAazCIpk6YVfrktGDvx6-5">
          <mxGeometry relative="1" as="geometry">
            <mxPoint x="900" y="433" as="sourcePoint" />
          </mxGeometry>
        </mxCell>
        <mxCell id="MAazCIpk6YVfrktGDvx6-5" value="main" style="whiteSpace=wrap;html=1;fontFamily=Source Han Sans;fillColor=#dae8fc;strokeColor=#6c8ebf;gradientColor=none;spacing=2;fontSize=18;" vertex="1" parent="MAazCIpk6YVfrktGDvx6-1">
          <mxGeometry x="860" y="363" width="80" height="40" as="geometry" />
        </mxCell>
        <mxCell id="MAazCIpk6YVfrktGDvx6-6" value="B" style="ellipse;whiteSpace=wrap;html=1;fillColor=#dae8fc;strokeColor=#6c8ebf;gradientColor=none;fontFamily=Source Han Sans;horizontal=1;spacing=2;fontSize=18;" vertex="1" parent="MAazCIpk6YVfrktGDvx6-1">
          <mxGeometry x="520" y="433" width="40" height="40" as="geometry" />
        </mxCell>
        <mxCell id="MAazCIpk6YVfrktGDvx6-7" value="C" style="ellipse;whiteSpace=wrap;html=1;fillColor=#dae8fc;strokeColor=#6c8ebf;gradientColor=none;fontFamily=Source Han Sans;horizontal=1;spacing=2;fontSize=18;" vertex="1" parent="MAazCIpk6YVfrktGDvx6-1">
          <mxGeometry x="640" y="433" width="40" height="40" as="geometry" />
        </mxCell>
        <mxCell id="MAazCIpk6YVfrktGDvx6-8" value="D" style="ellipse;whiteSpace=wrap;html=1;fillColor=#dae8fc;strokeColor=#6c8ebf;gradientColor=none;fontFamily=Source Han Sans;horizontal=1;spacing=2;fontSize=18;" vertex="1" parent="MAazCIpk6YVfrktGDvx6-1">
          <mxGeometry x="760" y="433" width="40" height="40" as="geometry" />
        </mxCell>
        <mxCell id="MAazCIpk6YVfrktGDvx6-9" value="" style="edgeStyle=orthogonalEdgeStyle;rounded=0;orthogonalLoop=1;jettySize=auto;html=1;fontFamily=Source Han Sans;fontSize=12;fontColor=default;startArrow=block;startFill=1;endArrow=none;endFill=0;strokeColor=light-dark(#777777,#777777);align=center;verticalAlign=middle;labelBackgroundColor=default;fillColor=none;" edge="1" parent="MAazCIpk6YVfrktGDvx6-1">
          <mxGeometry relative="1" as="geometry">
            <mxPoint x="560" y="452.66" as="sourcePoint" />
            <mxPoint x="640" y="452.66" as="targetPoint" />
          </mxGeometry>
        </mxCell>
        <mxCell id="MAazCIpk6YVfrktGDvx6-10" value="" style="edgeStyle=orthogonalEdgeStyle;rounded=0;orthogonalLoop=1;jettySize=auto;html=1;fontFamily=Source Han Sans;fontSize=12;fontColor=default;startArrow=block;startFill=1;endArrow=none;endFill=0;strokeColor=light-dark(#777777,#777777);align=center;verticalAlign=middle;labelBackgroundColor=default;fillColor=none;" edge="1" parent="MAazCIpk6YVfrktGDvx6-1">
          <mxGeometry relative="1" as="geometry">
            <mxPoint x="680" y="452.66" as="sourcePoint" />
            <mxPoint x="760" y="452.66" as="targetPoint" />
            <Array as="points">
              <mxPoint x="740" y="452.66" />
              <mxPoint x="740" y="452.66" />
            </Array>
          </mxGeometry>
        </mxCell>
        <mxCell id="MAazCIpk6YVfrktGDvx6-11" style="edgeStyle=orthogonalEdgeStyle;rounded=0;orthogonalLoop=1;jettySize=auto;html=1;fontFamily=Source Han Sans;fontSize=12;fontColor=default;strokeColor=light-dark(#777777,#777777);align=center;verticalAlign=middle;labelBackgroundColor=default;startArrow=block;startFill=1;endArrow=none;endFill=0;fillColor=none;entryX=0.5;entryY=0;entryDx=0;entryDy=0;exitX=0.5;exitY=1;exitDx=0;exitDy=0;" edge="1" parent="MAazCIpk6YVfrktGDvx6-1" source="MAazCIpk6YVfrktGDvx6-14" target="MAazCIpk6YVfrktGDvx6-12">
          <mxGeometry relative="1" as="geometry">
            <mxPoint x="840" y="630" as="sourcePoint" />
            <mxPoint x="840" y="707" as="targetPoint" />
            <Array as="points" />
          </mxGeometry>
        </mxCell>
        <mxCell id="MAazCIpk6YVfrktGDvx6-12" value="HEAD" style="rounded=0;whiteSpace=wrap;html=1;align=center;verticalAlign=middle;spacing=2;fontFamily=Source Han Sans;fontSize=18;fillColor=#f8cecc;strokeColor=#b85450;" vertex="1" parent="MAazCIpk6YVfrktGDvx6-1">
          <mxGeometry x="740" y="580" width="80" height="40" as="geometry" />
        </mxCell>
        <mxCell id="MAazCIpk6YVfrktGDvx6-13" style="edgeStyle=orthogonalEdgeStyle;rounded=0;orthogonalLoop=1;jettySize=auto;html=1;fontFamily=Source Han Sans;fontSize=12;fontColor=default;strokeColor=light-dark(#777777,#777777);align=center;verticalAlign=middle;labelBackgroundColor=default;startArrow=block;startFill=1;endArrow=none;endFill=0;fillColor=none;exitX=0.5;exitY=1;exitDx=0;exitDy=0;" edge="1" parent="MAazCIpk6YVfrktGDvx6-1" source="MAazCIpk6YVfrktGDvx6-8" target="MAazCIpk6YVfrktGDvx6-14">
          <mxGeometry relative="1" as="geometry">
            <mxPoint x="780" y="473" as="sourcePoint" />
          </mxGeometry>
        </mxCell>
        <mxCell id="MAazCIpk6YVfrktGDvx6-14" value="dev" style="whiteSpace=wrap;html=1;fontFamily=Source Han Sans;fillColor=#dae8fc;strokeColor=#6c8ebf;gradientColor=none;spacing=2;fontSize=18;rounded=0;" vertex="1" parent="MAazCIpk6YVfrktGDvx6-1">
          <mxGeometry x="740" y="503" width="80" height="40" as="geometry" />
        </mxCell>
        <mxCell id="MAazCIpk6YVfrktGDvx6-15" style="edgeStyle=orthogonalEdgeStyle;rounded=0;orthogonalLoop=1;jettySize=auto;html=1;strokeColor=light-dark(#777777,#777777);align=center;verticalAlign=middle;fontFamily=Source Han Sans;fontSize=12;fontColor=default;labelBackgroundColor=default;startArrow=block;startFill=1;endArrow=none;endFill=0;fillColor=none;exitX=1;exitY=0.5;exitDx=0;exitDy=0;" edge="1" parent="MAazCIpk6YVfrktGDvx6-1" source="MAazCIpk6YVfrktGDvx6-8" target="MAazCIpk6YVfrktGDvx6-16">
          <mxGeometry relative="1" as="geometry" />
        </mxCell>
        <mxCell id="MAazCIpk6YVfrktGDvx6-16" value="E" style="ellipse;whiteSpace=wrap;html=1;fillColor=#dae8fc;strokeColor=#6c8ebf;gradientColor=none;fontFamily=Source Han Sans;horizontal=1;spacing=2;fontSize=18;" vertex="1" parent="MAazCIpk6YVfrktGDvx6-1">
          <mxGeometry x="880" y="433" width="40" height="40" as="geometry" />
        </mxCell>
      </root>
    </mxGraphModel>
  </diagram>
  <diagram name="git-tree-new-branch-4" id="rZ-_EtyzXNRD-BgTb02c">
    <mxGraphModel dx="693" dy="410" grid="1" gridSize="10" guides="1" tooltips="1" connect="1" arrows="1" fold="1" page="1" pageScale="1" pageWidth="1169" pageHeight="827" background="none" math="0" shadow="0">
      <root>
        <mxCell id="PnOMqcBVLKBBu5U9K8Ro-0" />
        <mxCell id="PnOMqcBVLKBBu5U9K8Ro-1" parent="PnOMqcBVLKBBu5U9K8Ro-0" />
        <mxCell id="PnOMqcBVLKBBu5U9K8Ro-2" value="" style="edgeStyle=orthogonalEdgeStyle;rounded=0;orthogonalLoop=1;jettySize=auto;html=1;fontFamily=Source Han Sans;fontSize=12;fontColor=default;startArrow=block;startFill=1;endArrow=none;endFill=0;fillColor=none;strokeColor=light-dark(#777777,#777777);" edge="1" parent="PnOMqcBVLKBBu5U9K8Ro-1" source="PnOMqcBVLKBBu5U9K8Ro-3" target="PnOMqcBVLKBBu5U9K8Ro-6">
          <mxGeometry relative="1" as="geometry" />
        </mxCell>
        <mxCell id="PnOMqcBVLKBBu5U9K8Ro-3" value="&lt;font&gt;A&lt;/font&gt;" style="ellipse;whiteSpace=wrap;html=1;fillColor=#dae8fc;strokeColor=#6c8ebf;gradientColor=none;fontFamily=Source Han Sans;horizontal=1;spacing=2;fontSize=18;" vertex="1" parent="PnOMqcBVLKBBu5U9K8Ro-1">
          <mxGeometry x="400" y="433" width="40" height="40" as="geometry" />
        </mxCell>
        <mxCell id="PnOMqcBVLKBBu5U9K8Ro-4" style="edgeStyle=orthogonalEdgeStyle;rounded=0;orthogonalLoop=1;jettySize=auto;html=1;exitX=0.5;exitY=0;exitDx=0;exitDy=0;entryX=0.5;entryY=1;entryDx=0;entryDy=0;fontFamily=Source Han Sans;fontSize=12;fontColor=default;strokeColor=light-dark(#777777,#777777);align=center;verticalAlign=middle;labelBackgroundColor=default;startArrow=block;startFill=1;endArrow=none;endFill=0;fillColor=none;" edge="1" parent="PnOMqcBVLKBBu5U9K8Ro-1" target="PnOMqcBVLKBBu5U9K8Ro-5">
          <mxGeometry relative="1" as="geometry">
            <mxPoint x="900" y="433" as="sourcePoint" />
          </mxGeometry>
        </mxCell>
        <mxCell id="PnOMqcBVLKBBu5U9K8Ro-5" value="main" style="whiteSpace=wrap;html=1;fontFamily=Source Han Sans;fillColor=#dae8fc;strokeColor=#6c8ebf;gradientColor=none;spacing=2;fontSize=18;" vertex="1" parent="PnOMqcBVLKBBu5U9K8Ro-1">
          <mxGeometry x="860" y="363" width="80" height="40" as="geometry" />
        </mxCell>
        <mxCell id="PnOMqcBVLKBBu5U9K8Ro-6" value="B" style="ellipse;whiteSpace=wrap;html=1;fillColor=#dae8fc;strokeColor=#6c8ebf;gradientColor=none;fontFamily=Source Han Sans;horizontal=1;spacing=2;fontSize=18;" vertex="1" parent="PnOMqcBVLKBBu5U9K8Ro-1">
          <mxGeometry x="520" y="433" width="40" height="40" as="geometry" />
        </mxCell>
        <mxCell id="PnOMqcBVLKBBu5U9K8Ro-7" value="C" style="ellipse;whiteSpace=wrap;html=1;fillColor=#dae8fc;strokeColor=#6c8ebf;gradientColor=none;fontFamily=Source Han Sans;horizontal=1;spacing=2;fontSize=18;" vertex="1" parent="PnOMqcBVLKBBu5U9K8Ro-1">
          <mxGeometry x="640" y="433" width="40" height="40" as="geometry" />
        </mxCell>
        <mxCell id="PnOMqcBVLKBBu5U9K8Ro-8" value="D" style="ellipse;whiteSpace=wrap;html=1;fillColor=#dae8fc;strokeColor=#6c8ebf;gradientColor=none;fontFamily=Source Han Sans;horizontal=1;spacing=2;fontSize=18;" vertex="1" parent="PnOMqcBVLKBBu5U9K8Ro-1">
          <mxGeometry x="760" y="433" width="40" height="40" as="geometry" />
        </mxCell>
        <mxCell id="PnOMqcBVLKBBu5U9K8Ro-9" value="" style="edgeStyle=orthogonalEdgeStyle;rounded=0;orthogonalLoop=1;jettySize=auto;html=1;fontFamily=Source Han Sans;fontSize=12;fontColor=default;startArrow=block;startFill=1;endArrow=none;endFill=0;strokeColor=light-dark(#777777,#777777);align=center;verticalAlign=middle;labelBackgroundColor=default;fillColor=none;" edge="1" parent="PnOMqcBVLKBBu5U9K8Ro-1">
          <mxGeometry relative="1" as="geometry">
            <mxPoint x="560" y="452.66" as="sourcePoint" />
            <mxPoint x="640" y="452.66" as="targetPoint" />
          </mxGeometry>
        </mxCell>
        <mxCell id="PnOMqcBVLKBBu5U9K8Ro-10" value="" style="edgeStyle=orthogonalEdgeStyle;rounded=0;orthogonalLoop=1;jettySize=auto;html=1;fontFamily=Source Han Sans;fontSize=12;fontColor=default;startArrow=block;startFill=1;endArrow=none;endFill=0;strokeColor=light-dark(#777777,#777777);align=center;verticalAlign=middle;labelBackgroundColor=default;fillColor=none;" edge="1" parent="PnOMqcBVLKBBu5U9K8Ro-1">
          <mxGeometry relative="1" as="geometry">
            <mxPoint x="680" y="452.66" as="sourcePoint" />
            <mxPoint x="760" y="452.66" as="targetPoint" />
            <Array as="points">
              <mxPoint x="740" y="452.66" />
              <mxPoint x="740" y="452.66" />
            </Array>
          </mxGeometry>
        </mxCell>
        <mxCell id="PnOMqcBVLKBBu5U9K8Ro-11" style="edgeStyle=orthogonalEdgeStyle;rounded=0;orthogonalLoop=1;jettySize=auto;html=1;fontFamily=Source Han Sans;fontSize=12;fontColor=default;strokeColor=light-dark(#777777,#777777);align=center;verticalAlign=middle;labelBackgroundColor=default;startArrow=block;startFill=1;endArrow=none;endFill=0;fillColor=none;entryX=0.5;entryY=0;entryDx=0;entryDy=0;exitX=0.5;exitY=1;exitDx=0;exitDy=0;" edge="1" parent="PnOMqcBVLKBBu5U9K8Ro-1" target="PnOMqcBVLKBBu5U9K8Ro-12">
          <mxGeometry relative="1" as="geometry">
            <mxPoint x="900" y="620" as="sourcePoint" />
            <mxPoint x="960" y="784" as="targetPoint" />
            <Array as="points" />
          </mxGeometry>
        </mxCell>
        <mxCell id="PnOMqcBVLKBBu5U9K8Ro-12" value="HEAD" style="rounded=0;whiteSpace=wrap;html=1;align=center;verticalAlign=middle;spacing=2;fontFamily=Source Han Sans;fontSize=18;fillColor=#f8cecc;strokeColor=#b85450;" vertex="1" parent="PnOMqcBVLKBBu5U9K8Ro-1">
          <mxGeometry x="860" y="657" width="80" height="40" as="geometry" />
        </mxCell>
        <mxCell id="PnOMqcBVLKBBu5U9K8Ro-15" style="edgeStyle=orthogonalEdgeStyle;rounded=0;orthogonalLoop=1;jettySize=auto;html=1;strokeColor=light-dark(#777777,#777777);align=center;verticalAlign=middle;fontFamily=Source Han Sans;fontSize=12;fontColor=default;labelBackgroundColor=default;startArrow=block;startFill=1;endArrow=none;endFill=0;fillColor=none;exitX=1;exitY=0.5;exitDx=0;exitDy=0;" edge="1" parent="PnOMqcBVLKBBu5U9K8Ro-1" source="PnOMqcBVLKBBu5U9K8Ro-8" target="PnOMqcBVLKBBu5U9K8Ro-16">
          <mxGeometry relative="1" as="geometry" />
        </mxCell>
        <mxCell id="PnOMqcBVLKBBu5U9K8Ro-16" value="E" style="ellipse;whiteSpace=wrap;html=1;fillColor=#dae8fc;strokeColor=#6c8ebf;gradientColor=none;fontFamily=Source Han Sans;horizontal=1;spacing=2;fontSize=18;" vertex="1" parent="PnOMqcBVLKBBu5U9K8Ro-1">
          <mxGeometry x="880" y="433" width="40" height="40" as="geometry" />
        </mxCell>
        <mxCell id="-ZeP5er0sBaghNifE2CQ-1" style="edgeStyle=orthogonalEdgeStyle;rounded=0;orthogonalLoop=1;jettySize=auto;html=1;fontFamily=Source Han Sans;fontSize=12;fontColor=default;strokeColor=light-dark(#777777,#777777);align=center;verticalAlign=middle;labelBackgroundColor=default;startArrow=block;startFill=1;endArrow=none;endFill=0;fillColor=none;exitX=0.5;exitY=1;exitDx=0;exitDy=0;" edge="1" parent="PnOMqcBVLKBBu5U9K8Ro-1" source="-ZeP5er0sBaghNifE2CQ-4" target="-ZeP5er0sBaghNifE2CQ-2">
          <mxGeometry relative="1" as="geometry" />
        </mxCell>
        <mxCell id="-ZeP5er0sBaghNifE2CQ-2" value="dev" style="whiteSpace=wrap;html=1;fontFamily=Source Han Sans;fillColor=#dae8fc;strokeColor=#6c8ebf;gradientColor=none;spacing=2;fontSize=18;" vertex="1" parent="PnOMqcBVLKBBu5U9K8Ro-1">
          <mxGeometry x="860" y="580" width="80" height="40" as="geometry" />
        </mxCell>
        <mxCell id="-ZeP5er0sBaghNifE2CQ-3" style="rounded=0;orthogonalLoop=1;jettySize=auto;html=1;entryX=0;entryY=0.5;entryDx=0;entryDy=0;fontFamily=Source Han Sans;fontSize=12;fontColor=default;exitX=1;exitY=0.5;exitDx=0;exitDy=0;edgeStyle=orthogonalEdgeStyle;curved=1;strokeColor=light-dark(#777777,#777777);align=center;verticalAlign=middle;labelBackgroundColor=default;startArrow=block;startFill=1;endArrow=none;endFill=0;fillColor=none;" edge="1" parent="PnOMqcBVLKBBu5U9K8Ro-1" target="-ZeP5er0sBaghNifE2CQ-4" source="PnOMqcBVLKBBu5U9K8Ro-8">
          <mxGeometry relative="1" as="geometry">
            <mxPoint x="800" y="450" as="sourcePoint" />
          </mxGeometry>
        </mxCell>
        <mxCell id="-ZeP5er0sBaghNifE2CQ-4" value="F" style="ellipse;whiteSpace=wrap;html=1;fillColor=#dae8fc;strokeColor=#6c8ebf;gradientColor=none;fontFamily=Source Han Sans;horizontal=1;spacing=2;fontSize=18;" vertex="1" parent="PnOMqcBVLKBBu5U9K8Ro-1">
          <mxGeometry x="880" y="510" width="40" height="40" as="geometry" />
        </mxCell>
      </root>
    </mxGraphModel>
  </diagram>
  <diagram id="WY1HJXo0yPyFjF_4J3iR" name="git-rebase">
    <mxGraphModel dx="564" dy="334" grid="1" gridSize="10" guides="1" tooltips="1" connect="1" arrows="1" fold="1" page="1" pageScale="1" pageWidth="1169" pageHeight="827" math="0" shadow="0">
      <root>
        <mxCell id="0" />
        <mxCell id="1" parent="0" />
        <mxCell id="0Bkx-xaKt6zWZoGS6ykm-1" style="edgeStyle=orthogonalEdgeStyle;rounded=0;orthogonalLoop=1;jettySize=auto;html=1;exitX=0.5;exitY=1;exitDx=0;exitDy=0;entryX=0.5;entryY=1;entryDx=0;entryDy=0;fontFamily=Source Han Sans;fontSize=12;fontColor=default;strokeColor=light-dark(#777777,#777777);align=center;verticalAlign=middle;labelBackgroundColor=default;startArrow=block;startFill=1;endArrow=none;endFill=0;fillColor=none;" edge="1" parent="1" target="0Bkx-xaKt6zWZoGS6ykm-2">
          <mxGeometry relative="1" as="geometry">
            <Array as="points">
              <mxPoint x="860" y="370" />
              <mxPoint x="860" y="370" />
            </Array>
            <mxPoint x="860" y="370" as="sourcePoint" />
          </mxGeometry>
        </mxCell>
        <mxCell id="0Bkx-xaKt6zWZoGS6ykm-2" value="main" style="whiteSpace=wrap;html=1;fontFamily=Source Han Sans;fillColor=#dae8fc;strokeColor=#6c8ebf;gradientColor=none;spacing=2;fontSize=18;" vertex="1" parent="1">
          <mxGeometry x="820" y="300" width="80" height="40" as="geometry" />
        </mxCell>
        <mxCell id="0Bkx-xaKt6zWZoGS6ykm-3" value="C" style="ellipse;whiteSpace=wrap;html=1;fillColor=#dae8fc;strokeColor=#6c8ebf;gradientColor=none;fontFamily=Source Han Sans;horizontal=1;spacing=2;fontSize=18;" vertex="1" parent="1">
          <mxGeometry x="480" y="370" width="40" height="40" as="geometry" />
        </mxCell>
        <mxCell id="0Bkx-xaKt6zWZoGS6ykm-4" value="" style="edgeStyle=orthogonalEdgeStyle;rounded=0;orthogonalLoop=1;jettySize=auto;html=1;fontFamily=Source Han Sans;fontSize=12;fontColor=default;exitX=1;exitY=0.5;exitDx=0;exitDy=0;entryX=0;entryY=0.5;entryDx=0;entryDy=0;strokeColor=light-dark(#777777,#777777);align=center;verticalAlign=middle;labelBackgroundColor=default;startArrow=block;startFill=1;endArrow=none;endFill=0;fillColor=none;" edge="1" parent="1" source="0Bkx-xaKt6zWZoGS6ykm-5" target="0Bkx-xaKt6zWZoGS6ykm-9">
          <mxGeometry relative="1" as="geometry">
            <mxPoint x="660" y="420" as="sourcePoint" />
          </mxGeometry>
        </mxCell>
        <mxCell id="0Bkx-xaKt6zWZoGS6ykm-5" value="D" style="ellipse;whiteSpace=wrap;html=1;fillColor=#dae8fc;strokeColor=#6c8ebf;gradientColor=none;fontFamily=Source Han Sans;horizontal=1;spacing=2;fontSize=18;" vertex="1" parent="1">
          <mxGeometry x="600" y="370" width="40" height="40" as="geometry" />
        </mxCell>
        <mxCell id="0Bkx-xaKt6zWZoGS6ykm-6" value="" style="edgeStyle=orthogonalEdgeStyle;rounded=0;orthogonalLoop=1;jettySize=auto;html=1;fontFamily=Source Han Sans;fontSize=12;fontColor=default;startArrow=block;startFill=1;endArrow=none;endFill=0;strokeColor=light-dark(#777777,#777777);align=center;verticalAlign=middle;labelBackgroundColor=default;fillColor=none;" edge="1" parent="1">
          <mxGeometry relative="1" as="geometry">
            <mxPoint x="520" y="389.6600000000001" as="sourcePoint" />
            <mxPoint x="600" y="389.6600000000001" as="targetPoint" />
            <Array as="points">
              <mxPoint x="580" y="389.6600000000001" />
              <mxPoint x="580" y="389.6600000000001" />
            </Array>
          </mxGeometry>
        </mxCell>
        <mxCell id="0Bkx-xaKt6zWZoGS6ykm-7" style="edgeStyle=orthogonalEdgeStyle;rounded=0;orthogonalLoop=1;jettySize=auto;html=1;fontFamily=Source Han Sans;fontSize=12;fontColor=default;strokeColor=light-dark(#777777,#777777);align=center;verticalAlign=middle;labelBackgroundColor=default;startArrow=block;startFill=1;endArrow=none;endFill=0;fillColor=none;exitX=0.5;exitY=1;exitDx=0;exitDy=0;" edge="1" parent="1" source="0Bkx-xaKt6zWZoGS6ykm-10" target="0Bkx-xaKt6zWZoGS6ykm-8">
          <mxGeometry relative="1" as="geometry" />
        </mxCell>
        <mxCell id="0Bkx-xaKt6zWZoGS6ykm-8" value="dev" style="whiteSpace=wrap;html=1;fontFamily=Source Han Sans;fillColor=#dae8fc;strokeColor=#6c8ebf;gradientColor=none;spacing=2;fontSize=18;" vertex="1" parent="1">
          <mxGeometry x="820" y="440" width="80" height="40" as="geometry" />
        </mxCell>
        <mxCell id="0Bkx-xaKt6zWZoGS6ykm-9" value="E" style="ellipse;whiteSpace=wrap;html=1;fillColor=#dae8fc;strokeColor=#6c8ebf;gradientColor=none;fontFamily=Source Han Sans;horizontal=1;spacing=2;fontSize=18;" vertex="1" parent="1">
          <mxGeometry x="720" y="370" width="40" height="40" as="geometry" />
        </mxCell>
        <mxCell id="0Bkx-xaKt6zWZoGS6ykm-10" value="F" style="ellipse;whiteSpace=wrap;html=1;fillColor=#dae8fc;strokeColor=#6c8ebf;gradientColor=none;fontFamily=Source Han Sans;horizontal=1;spacing=2;fontSize=18;" vertex="1" parent="1">
          <mxGeometry x="840" y="370" width="40" height="40" as="geometry" />
        </mxCell>
        <mxCell id="0Bkx-xaKt6zWZoGS6ykm-11" style="edgeStyle=orthogonalEdgeStyle;rounded=0;orthogonalLoop=1;jettySize=auto;html=1;entryX=1;entryY=0.5;entryDx=0;entryDy=0;fontFamily=Source Han Sans;fontSize=12;fontColor=default;strokeColor=light-dark(#777777,#777777);align=center;verticalAlign=middle;labelBackgroundColor=default;startArrow=block;startFill=1;endArrow=none;endFill=0;fillColor=none;exitX=1;exitY=0.5;exitDx=0;exitDy=0;" edge="1" parent="1" source="0Bkx-xaKt6zWZoGS6ykm-9">
          <mxGeometry relative="1" as="geometry">
            <Array as="points">
              <mxPoint x="760" y="390" />
              <mxPoint x="760" y="390" />
            </Array>
            <mxPoint x="840" y="390" as="targetPoint" />
          </mxGeometry>
        </mxCell>
      </root>
    </mxGraphModel>
  </diagram>
  <diagram id="5ucJCEQEZ9sHhwO5TMMf" name="git-merge">
    <mxGraphModel dx="564" dy="334" grid="1" gridSize="10" guides="1" tooltips="1" connect="1" arrows="1" fold="1" page="1" pageScale="1" pageWidth="1169" pageHeight="827" math="0" shadow="0">
      <root>
        <mxCell id="0" />
        <mxCell id="1" parent="0" />
        <mxCell id="6O4LbSO4e-owzsF-s5tj-1" style="edgeStyle=orthogonalEdgeStyle;rounded=0;orthogonalLoop=1;jettySize=auto;html=1;exitX=0.5;exitY=0;exitDx=0;exitDy=0;entryX=0.5;entryY=1;entryDx=0;entryDy=0;fontFamily=Source Han Sans;fontSize=12;fontColor=default;strokeColor=light-dark(#777777,#777777);align=center;verticalAlign=middle;labelBackgroundColor=default;startArrow=block;startFill=1;endArrow=none;endFill=0;fillColor=none;" edge="1" parent="1" source="6O4LbSO4e-owzsF-s5tj-14" target="6O4LbSO4e-owzsF-s5tj-2">
          <mxGeometry relative="1" as="geometry">
            <Array as="points">
              <mxPoint x="850" y="350" />
              <mxPoint x="850" y="350" />
            </Array>
          </mxGeometry>
        </mxCell>
        <mxCell id="6O4LbSO4e-owzsF-s5tj-2" value="main" style="whiteSpace=wrap;html=1;fontFamily=Source Han Sans;fillColor=#dae8fc;strokeColor=#6c8ebf;gradientColor=none;spacing=2;fontSize=18;" vertex="1" parent="1">
          <mxGeometry x="810" y="280" width="80" height="40" as="geometry" />
        </mxCell>
        <mxCell id="6O4LbSO4e-owzsF-s5tj-3" value="C" style="ellipse;whiteSpace=wrap;html=1;fillColor=#dae8fc;strokeColor=#6c8ebf;gradientColor=none;fontFamily=Source Han Sans;horizontal=1;spacing=2;fontSize=18;" vertex="1" parent="1">
          <mxGeometry x="470" y="350" width="40" height="40" as="geometry" />
        </mxCell>
        <mxCell id="6O4LbSO4e-owzsF-s5tj-4" value="" style="edgeStyle=orthogonalEdgeStyle;rounded=0;orthogonalLoop=1;jettySize=auto;html=1;fontFamily=Source Han Sans;fontSize=12;fontColor=default;exitX=1;exitY=0.5;exitDx=0;exitDy=0;entryX=0;entryY=0.5;entryDx=0;entryDy=0;strokeColor=light-dark(#777777,#777777);align=center;verticalAlign=middle;labelBackgroundColor=default;startArrow=block;startFill=1;endArrow=none;endFill=0;fillColor=none;" edge="1" parent="1" source="6O4LbSO4e-owzsF-s5tj-5" target="6O4LbSO4e-owzsF-s5tj-9">
          <mxGeometry relative="1" as="geometry">
            <mxPoint x="650" y="400" as="sourcePoint" />
          </mxGeometry>
        </mxCell>
        <mxCell id="6O4LbSO4e-owzsF-s5tj-5" value="D" style="ellipse;whiteSpace=wrap;html=1;fillColor=#dae8fc;strokeColor=#6c8ebf;gradientColor=none;fontFamily=Source Han Sans;horizontal=1;spacing=2;fontSize=18;" vertex="1" parent="1">
          <mxGeometry x="590" y="350" width="40" height="40" as="geometry" />
        </mxCell>
        <mxCell id="6O4LbSO4e-owzsF-s5tj-6" value="" style="edgeStyle=orthogonalEdgeStyle;rounded=0;orthogonalLoop=1;jettySize=auto;html=1;fontFamily=Source Han Sans;fontSize=12;fontColor=default;startArrow=block;startFill=1;endArrow=none;endFill=0;strokeColor=light-dark(#777777,#777777);align=center;verticalAlign=middle;labelBackgroundColor=default;fillColor=none;" edge="1" parent="1">
          <mxGeometry relative="1" as="geometry">
            <mxPoint x="510" y="369.6600000000001" as="sourcePoint" />
            <mxPoint x="590" y="369.6600000000001" as="targetPoint" />
            <Array as="points">
              <mxPoint x="570" y="369.6600000000001" />
              <mxPoint x="570" y="369.6600000000001" />
            </Array>
          </mxGeometry>
        </mxCell>
        <mxCell id="6O4LbSO4e-owzsF-s5tj-7" style="edgeStyle=orthogonalEdgeStyle;rounded=0;orthogonalLoop=1;jettySize=auto;html=1;fontFamily=Source Han Sans;fontSize=12;fontColor=default;strokeColor=light-dark(#777777,#777777);align=center;verticalAlign=middle;labelBackgroundColor=default;startArrow=block;startFill=1;endArrow=none;endFill=0;fillColor=none;exitX=0.5;exitY=1;exitDx=0;exitDy=0;" edge="1" parent="1" source="6O4LbSO4e-owzsF-s5tj-11" target="6O4LbSO4e-owzsF-s5tj-8">
          <mxGeometry relative="1" as="geometry" />
        </mxCell>
        <mxCell id="6O4LbSO4e-owzsF-s5tj-8" value="dev" style="whiteSpace=wrap;html=1;fontFamily=Source Han Sans;fillColor=#dae8fc;strokeColor=#6c8ebf;gradientColor=none;spacing=2;fontSize=18;" vertex="1" parent="1">
          <mxGeometry x="690" y="500" width="80" height="40" as="geometry" />
        </mxCell>
        <mxCell id="6O4LbSO4e-owzsF-s5tj-9" value="E" style="ellipse;whiteSpace=wrap;html=1;fillColor=#dae8fc;strokeColor=#6c8ebf;gradientColor=none;fontFamily=Source Han Sans;horizontal=1;spacing=2;fontSize=18;" vertex="1" parent="1">
          <mxGeometry x="710" y="350" width="40" height="40" as="geometry" />
        </mxCell>
        <mxCell id="6O4LbSO4e-owzsF-s5tj-10" style="rounded=0;orthogonalLoop=1;jettySize=auto;html=1;entryX=0;entryY=0.5;entryDx=0;entryDy=0;fontFamily=Source Han Sans;fontSize=12;fontColor=default;exitX=1;exitY=0.5;exitDx=0;exitDy=0;edgeStyle=orthogonalEdgeStyle;curved=1;strokeColor=light-dark(#777777,#777777);align=center;verticalAlign=middle;labelBackgroundColor=default;startArrow=block;startFill=1;endArrow=none;endFill=0;fillColor=none;" edge="1" parent="1" source="6O4LbSO4e-owzsF-s5tj-5" target="6O4LbSO4e-owzsF-s5tj-11">
          <mxGeometry relative="1" as="geometry">
            <Array as="points">
              <mxPoint x="670" y="370" />
              <mxPoint x="670" y="450" />
            </Array>
          </mxGeometry>
        </mxCell>
        <mxCell id="6O4LbSO4e-owzsF-s5tj-11" value="F" style="ellipse;whiteSpace=wrap;html=1;fillColor=#dae8fc;strokeColor=#6c8ebf;gradientColor=none;fontFamily=Source Han Sans;horizontal=1;spacing=2;fontSize=18;" vertex="1" parent="1">
          <mxGeometry x="710" y="430" width="40" height="40" as="geometry" />
        </mxCell>
        <mxCell id="6O4LbSO4e-owzsF-s5tj-12" style="edgeStyle=orthogonalEdgeStyle;rounded=0;orthogonalLoop=1;jettySize=auto;html=1;fontFamily=Source Han Sans;fontSize=12;fontColor=default;strokeColor=light-dark(#777777,#777777);align=center;verticalAlign=middle;labelBackgroundColor=default;startArrow=block;startFill=1;endArrow=none;endFill=0;fillColor=none;exitX=1;exitY=0.5;exitDx=0;exitDy=0;" edge="1" parent="1" source="6O4LbSO4e-owzsF-s5tj-9" target="6O4LbSO4e-owzsF-s5tj-14">
          <mxGeometry relative="1" as="geometry" />
        </mxCell>
        <mxCell id="6O4LbSO4e-owzsF-s5tj-13" style="edgeStyle=orthogonalEdgeStyle;rounded=0;orthogonalLoop=1;jettySize=auto;html=1;fontFamily=Source Han Sans;fontSize=12;fontColor=default;curved=1;strokeColor=light-dark(#777777,#777777);align=center;verticalAlign=middle;labelBackgroundColor=default;startArrow=block;startFill=1;endArrow=none;endFill=0;fillColor=none;exitX=1;exitY=0.5;exitDx=0;exitDy=0;" edge="1" parent="1" source="6O4LbSO4e-owzsF-s5tj-11" target="6O4LbSO4e-owzsF-s5tj-14">
          <mxGeometry relative="1" as="geometry">
            <Array as="points">
              <mxPoint x="800" y="450" />
              <mxPoint x="800" y="370" />
            </Array>
          </mxGeometry>
        </mxCell>
        <mxCell id="6O4LbSO4e-owzsF-s5tj-14" value="G" style="ellipse;whiteSpace=wrap;html=1;fillColor=#dae8fc;strokeColor=#6c8ebf;gradientColor=none;fontFamily=Source Han Sans;horizontal=1;spacing=2;fontSize=18;" vertex="1" parent="1">
          <mxGeometry x="830" y="350" width="40" height="40" as="geometry" />
        </mxCell>
      </root>
    </mxGraphModel>
  </diagram>
  <diagram id="nWuTT-3Qg1zcJq6epxnS" name="git-squash">
    <mxGraphModel dx="494" dy="364" grid="1" gridSize="10" guides="1" tooltips="1" connect="1" arrows="1" fold="1" page="1" pageScale="1" pageWidth="1169" pageHeight="827" math="0" shadow="0">
      <root>
        <mxCell id="0" />
        <mxCell id="1" parent="0" />
        <mxCell id="-yan9MLi_B_poHvXfc1--1" style="edgeStyle=orthogonalEdgeStyle;rounded=0;orthogonalLoop=1;jettySize=auto;html=1;exitX=0.5;exitY=1;exitDx=0;exitDy=0;entryX=0.5;entryY=1;entryDx=0;entryDy=0;fontFamily=Source Han Sans;fontSize=12;fontColor=default;strokeColor=light-dark(#777777,#777777);align=center;verticalAlign=middle;labelBackgroundColor=default;startArrow=block;startFill=1;endArrow=none;endFill=0;fillColor=none;" edge="1" parent="1" target="-yan9MLi_B_poHvXfc1--2">
          <mxGeometry relative="1" as="geometry">
            <Array as="points">
              <mxPoint x="640" y="360" />
              <mxPoint x="640" y="360" />
            </Array>
            <mxPoint x="640" y="360" as="sourcePoint" />
          </mxGeometry>
        </mxCell>
        <mxCell id="-yan9MLi_B_poHvXfc1--2" value="main" style="whiteSpace=wrap;html=1;fontFamily=Source Han Sans;fillColor=#dae8fc;strokeColor=#6c8ebf;gradientColor=none;spacing=2;fontSize=18;" vertex="1" parent="1">
          <mxGeometry x="600" y="290" width="80" height="40" as="geometry" />
        </mxCell>
        <mxCell id="-yan9MLi_B_poHvXfc1--3" value="C" style="ellipse;whiteSpace=wrap;html=1;fillColor=#dae8fc;strokeColor=#6c8ebf;gradientColor=none;fontFamily=Source Han Sans;horizontal=1;spacing=2;fontSize=18;" vertex="1" parent="1">
          <mxGeometry x="240" y="360" width="40" height="40" as="geometry" />
        </mxCell>
        <mxCell id="-yan9MLi_B_poHvXfc1--4" value="" style="edgeStyle=orthogonalEdgeStyle;rounded=0;orthogonalLoop=1;jettySize=auto;html=1;fontFamily=Source Han Sans;fontSize=12;fontColor=default;exitX=1;exitY=0.5;exitDx=0;exitDy=0;entryX=0;entryY=0.5;entryDx=0;entryDy=0;strokeColor=light-dark(#777777,#777777);align=center;verticalAlign=middle;labelBackgroundColor=default;startArrow=block;startFill=1;endArrow=none;endFill=0;fillColor=none;" edge="1" parent="1" source="-yan9MLi_B_poHvXfc1--5" target="-yan9MLi_B_poHvXfc1--9">
          <mxGeometry relative="1" as="geometry">
            <mxPoint x="420" y="410" as="sourcePoint" />
          </mxGeometry>
        </mxCell>
        <mxCell id="-yan9MLi_B_poHvXfc1--5" value="D" style="ellipse;whiteSpace=wrap;html=1;fillColor=#dae8fc;strokeColor=#6c8ebf;gradientColor=none;fontFamily=Source Han Sans;horizontal=1;spacing=2;fontSize=18;" vertex="1" parent="1">
          <mxGeometry x="360" y="360" width="40" height="40" as="geometry" />
        </mxCell>
        <mxCell id="-yan9MLi_B_poHvXfc1--6" value="" style="edgeStyle=orthogonalEdgeStyle;rounded=0;orthogonalLoop=1;jettySize=auto;html=1;fontFamily=Source Han Sans;fontSize=12;fontColor=default;startArrow=block;startFill=1;endArrow=none;endFill=0;strokeColor=light-dark(#777777,#777777);align=center;verticalAlign=middle;labelBackgroundColor=default;fillColor=none;" edge="1" parent="1">
          <mxGeometry relative="1" as="geometry">
            <mxPoint x="280" y="379.6600000000001" as="sourcePoint" />
            <mxPoint x="360" y="379.6600000000001" as="targetPoint" />
            <Array as="points">
              <mxPoint x="340" y="379.6600000000001" />
              <mxPoint x="340" y="379.6600000000001" />
            </Array>
          </mxGeometry>
        </mxCell>
        <mxCell id="-yan9MLi_B_poHvXfc1--7" style="edgeStyle=orthogonalEdgeStyle;rounded=0;orthogonalLoop=1;jettySize=auto;html=1;fontFamily=Source Han Sans;fontSize=12;fontColor=default;strokeColor=light-dark(#777777,#777777);align=center;verticalAlign=middle;labelBackgroundColor=default;startArrow=block;startFill=1;endArrow=none;endFill=0;fillColor=none;exitX=0.5;exitY=1;exitDx=0;exitDy=0;" edge="1" parent="1" source="-yan9MLi_B_poHvXfc1--15" target="-yan9MLi_B_poHvXfc1--8">
          <mxGeometry relative="1" as="geometry" />
        </mxCell>
        <mxCell id="-yan9MLi_B_poHvXfc1--8" value="dev" style="whiteSpace=wrap;html=1;fontFamily=Source Han Sans;fillColor=#dae8fc;strokeColor=#6c8ebf;gradientColor=none;spacing=2;fontSize=18;" vertex="1" parent="1">
          <mxGeometry x="540" y="510" width="80" height="40" as="geometry" />
        </mxCell>
        <mxCell id="-yan9MLi_B_poHvXfc1--9" value="E" style="ellipse;whiteSpace=wrap;html=1;fillColor=#dae8fc;strokeColor=#6c8ebf;gradientColor=none;fontFamily=Source Han Sans;horizontal=1;spacing=2;fontSize=18;" vertex="1" parent="1">
          <mxGeometry x="480" y="360" width="40" height="40" as="geometry" />
        </mxCell>
        <mxCell id="-yan9MLi_B_poHvXfc1--10" style="rounded=0;orthogonalLoop=1;jettySize=auto;html=1;entryX=0;entryY=0.5;entryDx=0;entryDy=0;fontFamily=Source Han Sans;fontSize=12;fontColor=default;exitX=1;exitY=0.5;exitDx=0;exitDy=0;edgeStyle=orthogonalEdgeStyle;curved=1;strokeColor=light-dark(#777777,#777777);align=center;verticalAlign=middle;labelBackgroundColor=default;startArrow=block;startFill=1;endArrow=none;endFill=0;fillColor=none;" edge="1" parent="1" source="-yan9MLi_B_poHvXfc1--5" target="-yan9MLi_B_poHvXfc1--11">
          <mxGeometry relative="1" as="geometry" />
        </mxCell>
        <mxCell id="-yan9MLi_B_poHvXfc1--11" value="F" style="ellipse;whiteSpace=wrap;html=1;fillColor=#dae8fc;strokeColor=#6c8ebf;gradientColor=none;fontFamily=Source Han Sans;horizontal=1;spacing=2;fontSize=18;" vertex="1" parent="1">
          <mxGeometry x="480" y="440" width="40" height="40" as="geometry" />
        </mxCell>
        <mxCell id="-yan9MLi_B_poHvXfc1--12" style="edgeStyle=orthogonalEdgeStyle;rounded=0;orthogonalLoop=1;jettySize=auto;html=1;fontFamily=Source Han Sans;fontSize=12;fontColor=default;strokeColor=light-dark(#777777,#777777);align=center;verticalAlign=middle;labelBackgroundColor=default;startArrow=block;startFill=1;endArrow=none;endFill=0;fillColor=none;exitX=1;exitY=0.5;exitDx=0;exitDy=0;" edge="1" parent="1" source="-yan9MLi_B_poHvXfc1--9" target="-yan9MLi_B_poHvXfc1--13">
          <mxGeometry relative="1" as="geometry" />
        </mxCell>
        <mxCell id="-yan9MLi_B_poHvXfc1--13" value="H" style="ellipse;whiteSpace=wrap;html=1;fillColor=#dae8fc;strokeColor=#6c8ebf;gradientColor=none;fontFamily=Source Han Sans;horizontal=1;spacing=2;fontSize=18;" vertex="1" parent="1">
          <mxGeometry x="620" y="360" width="40" height="40" as="geometry" />
        </mxCell>
        <mxCell id="-yan9MLi_B_poHvXfc1--14" style="edgeStyle=orthogonalEdgeStyle;rounded=0;orthogonalLoop=1;jettySize=auto;html=1;fontFamily=Source Han Sans;fontSize=12;fontColor=default;strokeColor=light-dark(#777777,#777777);align=center;verticalAlign=middle;labelBackgroundColor=default;startArrow=block;startFill=1;endArrow=none;endFill=0;fillColor=none;exitX=1;exitY=0.5;exitDx=0;exitDy=0;" edge="1" parent="1" source="-yan9MLi_B_poHvXfc1--11" target="-yan9MLi_B_poHvXfc1--15">
          <mxGeometry relative="1" as="geometry" />
        </mxCell>
        <mxCell id="-yan9MLi_B_poHvXfc1--15" value="G" style="ellipse;whiteSpace=wrap;html=1;fillColor=#dae8fc;strokeColor=#6c8ebf;gradientColor=none;fontFamily=Source Han Sans;horizontal=1;spacing=2;fontSize=18;" vertex="1" parent="1">
          <mxGeometry x="560" y="440" width="40" height="40" as="geometry" />
        </mxCell>
      </root>
    </mxGraphModel>
  </diagram>
</mxfile>
